<?xml version="1.0" encoding="utf-8"?>
<!-- Generator: Adobe Illustrator 28.3.0, SVG Export Plug-In . SVG Version: 6.00 Build 0)  -->
<svg version="1.1" id="Ebene_1" xmlns="http://www.w3.org/2000/svg" xmlns:xlink="http://www.w3.org/1999/xlink" x="0px" y="0px"
	 viewBox="0 0 202.5 202.5" style="enable-background:new 0 0 202.5 202.5;" xml:space="preserve">
<style type="text/css">
	.st0{opacity:0.37;}
</style>
<path class="st0" d="M201,175.8C145.5,220.1,56.7,208,16.3,148.6c-1.2-1.9-4.2-6.9-5.4-8.9c-1.7-3.7-4.3-8.9-5.5-12.8
	c-0.7-2-1.7-4.6-2.2-6.6C-0.9,104.5-1.1,87.8,3,71.9c1.7-6.5,4.2-13.7,7.4-19.6c1.9-4,4.7-8.4,7.1-12c1-1.7,3-3.9,4.2-5.5
	C33.3,20.2,49.4,8.6,67.5,3.6c56.3-17.6,125.6,32.7,99.4,93.7c-3.9,8.7-10,16.4-17.2,22.5c-14.4,12.7-35.5,17.1-53.8,11.4
	c-18.2-5.5-34.5-21.1-35.8-40.8c-1.1-14.6,6.2-29,18.4-37c20.1-14.2,54-2.1,53.6,24.4c-0.4,9.6-6.5,18.5-15.1,22.4
	c-8.6,3.8-19.5,1.7-25.7-5.3c-6.7-6.8-5.4-18.9,2.4-24.1c-7.4,5.4-8.3,17-1.5,23.2c14.1,14.1,36.7,2.5,36.8-16.4
	c0.1-17.8-20.3-29.1-36.4-25.2c-16.6,3.5-28.4,20.8-26.7,37.4c1.4,17.1,16.1,30.3,31.9,34.8c16.2,4.8,34.5,0.9,47.1-10.5
	c19.7-16.3,25.8-46.3,13.4-68.7c-8.2-14.9-22.5-26.2-38.3-32.2c-21.9-8.6-47.7-6.5-68.1,5.2c-18.6,11-33,28.6-40.2,49
	c-1,3.7-2.8,8.8-3.2,12.5c-1,3.7-1.2,9-1.6,12.8c0,4.3-0.1,8.7,0.5,12.9c0.3,4,1.3,8.9,2.2,12.8c0.3,1.9,1.4,4.3,1.9,6.2
	c0.9,3.6,3.5,8.5,4.9,12c1.9,3.2,4.5,8.2,6.8,11.1C62.6,204.2,145.9,215.7,201,175.8L201,175.8L201,175.8z"/>
</svg>
